<svg xmlns="http://www.w3.org/2000/svg" width="308.226" height="83.776" viewBox="0 0 308.226 83.776"><g transform="translate(2.512 0)"><path d="M18.7,37.6l.251,2.261v.251c-.377,0-.628-.377-.879-1.13a7.313,7.313,0,0,1-.377-2.386c0-2.763,1.884-7.787,5.526-15.072-.879.251-2.386.5-4.522.879a57.358,57.358,0,0,1-9.42,1.382c-1.884,0-2.763-.879-2.763-2.763,0-.126,0-.126.126-.126a23.161,23.161,0,0,0,5.9.5q3.956,0,11.3-.754l3.391-6.782A21.522,21.522,0,0,0,29,6.575c0-2.889-1.633-4.27-4.773-4.27-2.763,0-6.28,1-10.676,3.14a39.684,39.684,0,0,0-10.3,6.908.461.461,0,0,1-.377.126c-.628,0-.879-.5-.879-1.633,0-1.382,1.507-2.889,4.4-4.4a56.662,56.662,0,0,1,9.8-3.768A38.209,38.209,0,0,1,24.608,1.3c4.647,0,7.034,2.135,7.034,6.28a13.118,13.118,0,0,1-.754,4.773,89.994,89.994,0,0,1-4.647,8.038,23.458,23.458,0,0,1,4.019-.628c.377,0,.628.126.628.251a.461.461,0,0,1-.126.377c-.126.126-.377.126-.754.251a2.766,2.766,0,0,1-1,.126c-1.13.251-2.135.5-3.14.628C20.966,28.807,18.7,34.208,18.7,37.6Z" transform="translate(-2 0.333)" fill="#fff"/><path d="M40.6,31.14l.628-.126h.126c0,.377-.5.5-1.507.5a3.055,3.055,0,0,1-2.512-1.382,6.262,6.262,0,0,1-1-3.642,17.735,17.735,0,0,1,.879-5.275,12.382,12.382,0,0,1-1.633,2.512C32.187,29,29.55,31.517,27.666,31.517a2.853,2.853,0,0,1-2.261-1.13,4.583,4.583,0,0,1-1-3.014c0-1.256.754-3.014,2.135-5.526a34.2,34.2,0,0,1,5.275-6.657C33.82,13.3,35.579,12.3,37.086,12.3h.628a7.752,7.752,0,0,1,3.894.879,2.633,2.633,0,0,1,1.633,2.386c0,.5-.126.628-.5.628-.126,0-.126,0-.126-.126q-1.13-2.261-3.014-2.261c-2.261,0-5.024,1.884-8.038,5.778s-4.522,6.782-4.522,8.792c0,.754.251,1.13.628,1.13,1.884,0,5.778-4.145,11.681-12.56a.461.461,0,0,1,.377-.126,5.24,5.24,0,0,1,1.256.628c.628.377,1,.754,1,1L41.1,20.087c-1.382,3.14-2.135,5.652-2.135,7.787C38.97,30.135,39.472,31.14,40.6,31.14Z" transform="translate(3.735 3.149)" fill="#fff"/><path d="M54.326,21.694c.251,0,.377.126.377.251a.755.755,0,0,1-.126.5c-4.27,6.28-7.913,9.42-10.8,9.42q-5.275,0-5.275-4.9c0-2.512,1.256-5.526,3.768-9.169s4.9-5.4,7.159-5.4a4.082,4.082,0,0,1,2.512.879c.879.628,1.382,1.256,1.382,1.884,0,1.884-.628,2.889-2.01,2.889-.377,0-.628-.126-.628-.251a7.047,7.047,0,0,0,.754-2.763c0-.754-.126-1.13-.5-1.13-.5,0-1.256.5-2.512,1.382a25.271,25.271,0,0,0-5.275,6.154c-1.507,2.512-2.261,4.522-2.261,6.28,0,1.633.628,2.512,1.884,2.512q2.072,0,4.9-2.261c1.13-1.13,2.512-2.386,4.019-4.019C53.447,22.448,54.2,21.694,54.326,21.694Z" transform="translate(7.344 3.175)" fill="#fff"/><path d="M55.847,23.963c-1.13,3.391-1.758,5.652-1.758,6.908s.251,1.884.754,1.884a2.647,2.647,0,0,0,1.382-.628,11.027,11.027,0,0,0,1-.879l.377-.377a.27.27,0,0,1,.251.251c0,.5-.628,1.13-1.758,1.758a6.69,6.69,0,0,1-2.512,1c-1.507,0-2.386-1.13-2.386-3.391q0-5.087,3.768-13.565a2.185,2.185,0,0,1,.377-.879,4.04,4.04,0,0,1,.5-.879,1.535,1.535,0,0,1,1.13-.377c1.382,0,2.261.251,2.386.879A71.44,71.44,0,0,0,55.847,23.963ZM62.755,5.5c.126,0,.126.126.126.251L62.63,7.51c-.628,2.512-1.507,3.768-2.889,3.768a3.278,3.278,0,0,1-2.261-.754A19.139,19.139,0,0,0,62.755,5.5Z" transform="translate(10.596 1.408)" fill="#fff"/><path d="M73.7,31.115l.628-.126h.126c0,.377-.5.5-1.507.5a3.055,3.055,0,0,1-2.512-1.382,5.339,5.339,0,0,1-1-3.517,17.13,17.13,0,0,1,.879-5.275,12.382,12.382,0,0,1-1.633,2.512c-3.391,5.275-6.029,7.787-7.913,7.787a2.853,2.853,0,0,1-2.261-1.13,4.583,4.583,0,0,1-1-3.014c0-1.256.754-3.014,2.135-5.526a34.2,34.2,0,0,1,5.275-6.657C66.92,13.4,68.679,12.4,70.186,12.4h.628a7.752,7.752,0,0,1,3.894.879,2.633,2.633,0,0,1,1.633,2.386c0,.5-.126.628-.5.628-.126,0-.126,0-.126-.126q-1.13-2.261-3.014-2.261c-2.261,0-5.024,1.884-8.038,5.778s-4.522,6.782-4.522,8.792c0,.754.251,1.13.628,1.13,1.884,0,5.778-4.145,11.681-12.56a.461.461,0,0,1,.377-.126,5.24,5.24,0,0,1,1.256.628c.628.377,1,.754,1,1L74.2,20.187a17.8,17.8,0,0,0-2.01,7.536C72.07,30.11,72.572,31.115,73.7,31.115Z" transform="translate(12.209 3.175)" fill="#fff"/><path d="M77.094,33.912l1-.251c.251,0,.251.126.251.251,0,.628-.754,1-2.135,1q-3.014,0-3.014-4.9a42.218,42.218,0,0,1,2.01-10.425A72.984,72.984,0,0,1,80.234,6.28C82.243,2.135,84,0,85.635,0A5.076,5.076,0,0,1,88.4.879c.879.628,1.382,1.256,1.382,1.884,0,3.014-4.4,9.546-13.063,19.719a32.414,32.414,0,0,0-1,7.913C75.712,32.656,76.214,33.912,77.094,33.912ZM88.272,2.638q0-.754-.377-.754c-1.256,0-3.014,2.135-5.4,6.531a70.074,70.074,0,0,0-5.4,12.56C84.63,11.3,88.272,5.15,88.272,2.638Z" transform="translate(16.228 0)" fill="#fff"/><path d="M124.206,5.162c3.14,1.256,4.773,3.014,4.773,5.15s-1,4.145-3.14,6.029a21.331,21.331,0,0,1-8.038,4.27,32.545,32.545,0,0,1-9.671,1.633,22.26,22.26,0,0,1-3.014-.126c4.9,7.913,8.541,11.807,11.053,11.807a1.661,1.661,0,0,0,1.758-1.507l.5-2.638a2.1,2.1,0,0,1,.628,1.758,3.785,3.785,0,0,1-1.13,2.512,3.724,3.724,0,0,1-3.014,1.256c-1.256,0-3.14-1.256-5.652-3.894A63.419,63.419,0,0,1,101.6,21.364Q96.7,29.842,96.7,33.8a1.519,1.519,0,0,0,.754,1.507c0,.126-.126.126-.251.126-.879,0-1.256-1.256-1.256-3.642,0-3.642,1.507-8.038,4.4-13.063a10.79,10.79,0,0,1-1-2.261c0-.754.5-1.13,1.633-1.13.5,0,.754.251,1,.754,3.517-5.15,7.034-8.666,10.551-10.425h.5a3.2,3.2,0,0,1,.879.251c.377.251.5.377.5.628s0,.251-.126.251l-2.889,2.889a106.6,106.6,0,0,0-7.913,9.043,4.747,4.747,0,0,0,1.633,2.01,5.141,5.141,0,0,0,2.386.377,28.006,28.006,0,0,0,9.043-1.758,28.537,28.537,0,0,0,8.038-4.4c2.135-1.758,3.266-3.517,3.266-5.024q0-2.449-3.768-3.768a30.064,30.064,0,0,0-9.8-1.382q-15.826,0-25.623,6.782a2.328,2.328,0,0,1-1.256.5.924.924,0,0,1-1-1c0-1.382,1.382-2.763,4.145-3.894a39.4,39.4,0,0,1,9.8-2.763,66.5,66.5,0,0,1,10.8-1h.754A32.3,32.3,0,0,1,124.206,5.162Z" transform="translate(19.608 0.867)" fill="#fff"/><path d="M130.326,21.694c.251,0,.377.126.377.251a.755.755,0,0,1-.126.5c-4.27,6.28-7.913,9.42-10.8,9.42q-5.275,0-5.275-4.9c0-2.512,1.256-5.526,3.768-9.169s4.9-5.4,7.285-5.4a4.053,4.053,0,0,1,2.638,1,2.853,2.853,0,0,1,1.13,2.261c0,1.507-1,3.14-2.889,4.647a9.05,9.05,0,0,1-5.652,2.261c-.377,0-.5-.126-.5-.251l.126-.251c4.773-1.507,7.159-3.894,7.159-7.285,0-.5-.126-.754-.5-.754-.5,0-1.256.5-2.512,1.382a25.271,25.271,0,0,0-5.275,6.154c-1.507,2.512-2.261,4.522-2.261,6.28,0,1.633.628,2.512,1.884,2.512q2.072,0,4.9-2.261c1.13-1.13,2.512-2.386,4.019-4.019C129.447,22.448,130.326,21.694,130.326,21.694Z" transform="translate(26.802 3.175)" fill="#fff"/><path d="M135.607,17.8l-.126-2.512v-.126c0-.251.126-.377.5-.377a3.786,3.786,0,0,1,1.633.5c.754.377,1.13.628,1.256,1a13.326,13.326,0,0,1,.251,2.638c0,4.145-1.382,9.546-4.27,16.328a76.23,76.23,0,0,1-11.179,18.463c-4.522,5.526-8.29,8.29-11.43,8.29a4.471,4.471,0,0,1-3.14-.879,4.136,4.136,0,0,1-1-3.014c0-3.266,2.261-7.41,6.908-12.56A69.388,69.388,0,0,1,130.457,32.5l.5-.251c.126,0,.126.126.126.251a2.645,2.645,0,0,1-.754,1c-13.816,11.555-20.85,19.971-20.85,24.995q0,3.014,2.261,3.014c2.261,0,4.9-1.633,7.662-4.9a55,55,0,0,0,7.787-11.807,90.177,90.177,0,0,0,5.9-14.319C134.853,25.089,135.607,20.944,135.607,17.8Zm5.526-11.3c.126,0,.126.126.126.377V7.5c-.5,3.391-1.507,5.024-3.014,5.024a3.071,3.071,0,0,1-2.261-.754A29.509,29.509,0,0,0,141.133,6.5Z" transform="translate(25.163 1.664)" fill="#fff"/><path d="M139.275,13.356l-.5-1.13c0-.126.126-.126.5-.126a8.06,8.06,0,0,1,2.01.628c1,.377,1.507.754,1.507,1-.377.879-1.507,3.14-3.391,6.908s-2.763,6.28-2.763,7.536.251,1.884.754,1.884c.628,0,1.633-.754,2.889-2.261a41.457,41.457,0,0,0,3.642-5.15l5.15-8.415c.628-1,1.256-1.507,2.01-1.507,1.507,0,2.261.251,2.261.879,0-.126-.126,0-.251.251a54.633,54.633,0,0,0-3.14,7.536,21.422,21.422,0,0,0-1.382,5.778c0,2.512.5,3.768,1.382,3.768a4.46,4.46,0,0,0,1.758-1.13c.126,0,.126.126.126.5,0,1.13-.628,1.633-1.884,1.633a3.21,3.21,0,0,1-2.889-1.633,7.1,7.1,0,0,1-1-4.019,31.9,31.9,0,0,1,1-6.531c-3.266,5.275-5.4,8.541-6.406,9.923-1.13,1.382-2.135,2.01-3.14,2.01A3.162,3.162,0,0,1,135,30.563a3.989,3.989,0,0,1-1-2.512c0-1.758.879-4.522,2.763-8.541C138.27,15.617,139.275,13.607,139.275,13.356Z" transform="translate(31.794 3.098)" fill="#fff"/><path d="M170.571,11.435c0,.251,0,.377-.126.5a39.412,39.412,0,0,0-7.913,6.782A29.184,29.184,0,0,0,156,29.4q-.754,3.014-1.507,3.014c-1.256,0-1.884-.251-1.884-.879.628-6.657.879-10.551.879-11.681,0-3.391-.5-5.15-1.507-5.15-.126,0-.251.251-.377.5-.126.377-.377.5-.5.5-.377,0-.5-.251-.5-.879,0-.879.628-1.256,2.01-1.256,2.638,0,3.894,2.261,3.894,6.908,0,.377-.126,1.758-.377,4.019a.27.27,0,0,0,.251.251c.126,0,.251-.126.377-.5a94.4,94.4,0,0,1,7.913-9.8c2.386-2.512,4.145-3.642,5.275-3.642C170.319,10.681,170.571,10.932,170.571,11.435Z" transform="translate(36.044 2.758)" fill="#fff"/><path d="M176.326,21.694c.251,0,.377.126.377.251a.755.755,0,0,1-.126.5c-4.27,6.28-7.913,9.42-10.8,9.42q-5.275,0-5.275-4.9c0-2.512,1.256-5.526,3.768-9.169s4.9-5.4,7.285-5.4a4.053,4.053,0,0,1,2.638,1,2.853,2.853,0,0,1,1.13,2.261c0,1.507-1,3.14-2.889,4.647a9.05,9.05,0,0,1-5.652,2.261c-.377,0-.5-.126-.5-.251l.126-.251c4.773-1.507,7.159-3.894,7.159-7.285,0-.5-.126-.754-.5-.754-.5,0-1.256.5-2.512,1.382a25.271,25.271,0,0,0-5.275,6.154c-1.507,2.512-2.261,4.522-2.261,6.28,0,1.633.628,2.512,1.884,2.512q2.072,0,4.9-2.261c1.13-1.13,2.512-2.386,4.019-4.019C175.572,22.448,176.326,21.694,176.326,21.694Z" transform="translate(38.578 3.175)" fill="#fff"/><path d="M186.263,14.463v.251c0,.126-.126.377-.5.754-4.4,5.4-7.536,10.048-9.294,13.816l-.5,1.633c-.251.5-.5.628-.879.628a5.528,5.528,0,0,1-1.256-.251c-.5-.251-.628-.5-.628-.754,0-.754.628-3.14,2.01-7.41a33.8,33.8,0,0,0,2.01-9.546c0-.628-.126-.879-.377-1a2.137,2.137,0,0,0-.879-.126c-.251,0-.377-.126-.377-.251,0-.377.251-.5.879-.5q4.145,0,4.145,3.391c0,.879-1,4.27-3.014,10.048a63.029,63.029,0,0,1,5.275-7.41C184.63,15.468,185.76,14.463,186.263,14.463Zm4.9-.628c0-.126-.126,0-.251.251a54.635,54.635,0,0,0-3.14,7.536,30.172,30.172,0,0,0-1.382,5.778c0,2.512.5,3.768,1.382,3.768a2.584,2.584,0,0,0,1.13-.628,2.174,2.174,0,0,0,.628-.628c.126,0,.126.126.126.5,0,1.13-.628,1.633-1.884,1.633a3.21,3.21,0,0,1-2.889-1.633,9.454,9.454,0,0,1-1-4.647,26.533,26.533,0,0,1,1.633-8.038c1.13-3.266,2.135-5.024,3.14-5.024h.251C190.407,12.956,191.161,13.207,191.161,13.835Z" transform="translate(41.83 2.995)" fill="#fff"/><path d="M203,31.14l.628-.126h.126c0,.377-.5.5-1.507.5a3.055,3.055,0,0,1-2.512-1.382,6.262,6.262,0,0,1-1-3.642,17.735,17.735,0,0,1,.879-5.275,12.383,12.383,0,0,1-1.633,2.512c-3.391,5.275-6.029,7.787-7.913,7.787a2.853,2.853,0,0,1-2.261-1.13,4.583,4.583,0,0,1-1-3.014c0-1.256.754-3.014,2.135-5.526a34.2,34.2,0,0,1,5.275-6.657c2.01-1.884,3.768-2.889,5.275-2.889h.628a7.752,7.752,0,0,1,3.894.879,2.633,2.633,0,0,1,1.633,2.386c0,.5-.126.628-.5.628-.126,0-.126,0-.126-.126q-1.13-2.261-3.014-2.261c-2.261,0-5.024,1.884-8.038,5.778s-4.522,6.782-4.522,8.792c0,.754.251,1.13.628,1.13,1.884,0,5.778-4.145,11.681-12.56a.461.461,0,0,1,.377-.126,5.239,5.239,0,0,1,1.256.628c.628.377,1,.754,1,1l-.879,1.633a17.8,17.8,0,0,0-2.01,7.536C201.37,30.135,201.872,31.14,203,31.14Z" transform="translate(45.311 3.149)" fill="#fff"/><path d="M209.334,7.679l-1.256.251c-.126,0-.126,0-.126-.126q0-.565.754-.754a6.371,6.371,0,0,1,1.13-.251c1.758,0,2.763,1,2.763,3.14a12.974,12.974,0,0,1-1.13,4.647,5.529,5.529,0,0,0,2.261.251,7.474,7.474,0,0,0,3.14-.5,10.3,10.3,0,0,1,1.382-.5c.251,0,.251,0,.251.126s-.126.251-.251.377a13.265,13.265,0,0,1-7.159,3.014,2.452,2.452,0,0,0-.879.126c-3.768,7.536-5.652,12.183-5.652,14.193,0,.628.251,1,.754,1l1.758-.377h0c0,.879-.628,1.256-2.01,1.256a2.552,2.552,0,0,1-2.763-2.889,21.943,21.943,0,0,1,1.758-6.908c.628-1.507,1.633-3.768,2.889-6.782-1.382-.628-2.135-1.382-2.135-2.386a.738.738,0,0,1,.251-.628,11.172,11.172,0,0,0,2.889.628c1.382-3.014,2.01-4.9,2.01-5.778C209.836,8.056,209.71,7.679,209.334,7.679Z" transform="translate(49.279 1.741)" fill="#fff"/><path d="M216.347,23.963c-1.13,3.391-1.758,5.652-1.758,6.908s.251,1.884.754,1.884a2.647,2.647,0,0,0,1.382-.628,11.04,11.04,0,0,0,1-.879l.377-.377a.27.27,0,0,1,.251.251c0,.5-.628,1.13-1.758,1.758a6.69,6.69,0,0,1-2.512,1c-1.507,0-2.386-1.13-2.386-3.391q0-5.087,3.768-13.565a2.185,2.185,0,0,1,.377-.879,4.042,4.042,0,0,1,.5-.879,1.535,1.535,0,0,1,1.13-.377c1.382,0,2.261.251,2.386.879A54.685,54.685,0,0,0,216.347,23.963ZM223.13,5.5c.126,0,.126.126.126.251L223,7.51c-.628,2.512-1.507,3.768-2.889,3.768a3.278,3.278,0,0,1-2.261-.754A19.14,19.14,0,0,0,223.13,5.5Z" transform="translate(51.686 1.408)" fill="#fff"/><path d="M234.275,17.057l-1.507-.251a13.018,13.018,0,0,1,.126,2.01,15.926,15.926,0,0,1-2.638,9.043c-1.758,2.638-3.894,3.894-6.531,3.894-3.391,0-5.024-1.758-5.024-5.275a12.861,12.861,0,0,1,1-4.522,10.794,10.794,0,0,1,2.386-3.894,5.188,5.188,0,0,1-.628-2.889,4.422,4.422,0,0,1,1.507-3.266,5.03,5.03,0,0,1,3.642-1.507c2.763,0,4.522,1.382,5.4,4.145,1.884.377,2.889.879,2.889,1.382C234.9,16.68,234.651,17.057,234.275,17.057Zm-9.169,2.638a2,2,0,0,0,1,.377h.377c.251,0,.251.126.251.251,0,.377-.251.5-.879.5a3.344,3.344,0,0,1-1.507-.377c-2.135,2.512-3.266,4.9-3.266,7.159S221.966,31,223.6,31s3.266-1.382,4.773-4.019a15.311,15.311,0,0,0,2.261-7.662,5.5,5.5,0,0,0-.5-2.638A12.109,12.109,0,0,0,225.106,19.694Zm.754-7.41a2.468,2.468,0,0,0-2.135,1.13,3.755,3.755,0,0,0-.879,2.386,6.675,6.675,0,0,0,.126,1.758c2.763-2.135,4.773-3.14,5.778-3.14h.126A2.983,2.983,0,0,0,225.859,12.284Z" transform="translate(53.478 2.663)" fill="#fff"/><path d="M244.063,14.463v.251c0,.126-.126.377-.5.754-4.4,5.4-7.536,10.048-9.295,13.816l-.5,1.633c-.251.5-.5.628-.879.628a5.528,5.528,0,0,1-1.256-.251c-.5-.251-.628-.5-.628-.754,0-.754.628-3.14,2.01-7.41a33.8,33.8,0,0,0,2.01-9.546c0-.628-.126-.879-.377-1a2.137,2.137,0,0,0-.879-.126c-.251,0-.377-.126-.377-.251,0-.377.251-.5.879-.5q4.145,0,4.145,3.391c0,.879-1,4.27-3.014,10.048a63.026,63.026,0,0,1,5.275-7.41C242.3,15.468,243.435,14.463,244.063,14.463Zm4.773-.628c0-.126-.126,0-.251.251a54.635,54.635,0,0,0-3.14,7.536,30.169,30.169,0,0,0-1.382,5.778c0,2.512.5,3.768,1.382,3.768a2.585,2.585,0,0,0,1.13-.628,2.174,2.174,0,0,0,.628-.628c.126,0,.126.126.126.5,0,1.13-.628,1.633-1.884,1.633a3.21,3.21,0,0,1-2.889-1.633,9.454,9.454,0,0,1-1-4.647,26.534,26.534,0,0,1,1.633-8.038c1.13-3.266,2.135-5.024,3.14-5.024h.251C248.082,12.956,248.835,13.207,248.835,13.835Z" transform="translate(56.627 2.995)" fill="#fff"/></g><g transform="translate(161.649 43.081)"><path d="M137.492,46.248a6.913,6.913,0,0,1-7.285-.628,5.2,5.2,0,0,1-1.507-3.894,5.5,5.5,0,0,1,1.507-4.019,5.909,5.909,0,0,1,4.27-1.507,5.336,5.336,0,0,1,3.768,1.382,3.414,3.414,0,0,1,1,2.01l-1.256.628a3.621,3.621,0,0,0-1.256-2.135,4.016,4.016,0,0,0-2.261-.628,4.488,4.488,0,0,0-3.266,1.13,4.378,4.378,0,0,0-1.13,3.14,3.784,3.784,0,0,0,1.13,2.889,4.179,4.179,0,0,0,3.14,1.13,4.81,4.81,0,0,0,2.386-.628,3.361,3.361,0,0,0,1.382-2.261l1.382.5A4.225,4.225,0,0,1,137.492,46.248Z" transform="translate(-128.7 -33.814)" fill="#fff"/><path d="M148.307,42.078c.126,2.386,1.507,3.642,4.145,3.642,2.01,0,3.266-.754,3.894-2.386h1.507a4.855,4.855,0,0,1-2.261,3.014,6.607,6.607,0,0,1-3.266.754,5.6,5.6,0,0,1-4.145-1.507A5.44,5.44,0,0,1,146.8,41.7a5.2,5.2,0,0,1,1.507-3.894,5.5,5.5,0,0,1,4.019-1.507,5.992,5.992,0,0,1,4.019,1.382,4.739,4.739,0,0,1,1.507,3.768v.879h-9.546Zm7.159-3.517a4,4,0,0,0-3.014-1,4.059,4.059,0,0,0-2.763.879,4.133,4.133,0,0,0-1.382,2.512h8.164A3.023,3.023,0,0,0,155.466,38.561Z" transform="translate(-124.066 -33.788)" fill="#fff"/><path d="M173.99,46.876V40.094a2.342,2.342,0,0,0-.879-2.01,3.232,3.232,0,0,0-2.261-.628,4.138,4.138,0,0,0-2.763,1,3.6,3.6,0,0,0-1,2.638v5.778H165.7V36.451h1.382v1.13a5.025,5.025,0,0,1,3.642-1.382,4.9,4.9,0,0,1,3.14.879,3.336,3.336,0,0,1,1.382,2.763v6.908H173.99Z" transform="translate(-119.228 -33.814)" fill="#fff"/><path d="M186.817,38.57v8.792h-1.382V38.57H183.3V37.314h2.135V34.3h1.382v3.014h2.135V38.57Z" transform="translate(-114.722 -34.3)" fill="#fff"/><path d="M200.061,39.089a6.1,6.1,0,0,0-.879,3.517v4.27H197.8V36.451h1.382v1.382A5.71,5.71,0,0,1,203.7,36.2v1.256A4.065,4.065,0,0,0,200.061,39.089Z" transform="translate(-111.009 -33.814)" fill="#fff"/><path d="M213.382,42.078c.126,2.386,1.507,3.642,4.145,3.642,2.01,0,3.266-.754,3.894-2.386h1.507a4.855,4.855,0,0,1-2.261,3.014,6.45,6.45,0,0,1-3.14.754,5.6,5.6,0,0,1-4.145-1.507A5.44,5.44,0,0,1,212,41.7a5.2,5.2,0,0,1,1.507-3.894,5.5,5.5,0,0,1,4.019-1.507,5.992,5.992,0,0,1,4.019,1.382,4.739,4.739,0,0,1,1.507,3.768v.879h-9.671Zm7.159-3.517a4,4,0,0,0-3.014-1,4.059,4.059,0,0,0-2.763.879,4.133,4.133,0,0,0-1.382,2.512h8.164A3.023,3.023,0,0,0,220.541,38.561Z" transform="translate(-107.374 -33.788)" fill="#fff"/></g><g transform="translate(0.502 74.105)"><path d="M7.057,63.873a4.782,4.782,0,0,1-2.386.5H1.279v4.019H.4V59.1H4.8c2.386,0,3.517.879,3.517,2.763A2.154,2.154,0,0,1,7.057,63.873ZM4.922,59.979H1.279v3.642H4.922a4.012,4.012,0,0,0,1.758-.377,1.736,1.736,0,0,0,.754-1.382C7.434,60.607,6.554,59.979,4.922,59.979Z" transform="translate(-0.4 -58.974)" fill="#fff"/><path d="M9.6,68.395V59.1h.879v8.415h5.9v.879H9.6Z" transform="translate(1.955 -58.974)" fill="#fff"/><path d="M25.466,68.395l-1.382-2.889h-4.9L17.8,68.395h-1L21.322,59.1h.754l4.27,9.295Zm-3.642-7.913-2.01,4.27h4.019Z" transform="translate(3.799 -58.974)" fill="#fff"/><path d="M31.17,68.494a6.158,6.158,0,0,1-2.889-.628A2.752,2.752,0,0,1,26.9,65.354v-.377h.879v.377c0,1.633,1.13,2.386,3.391,2.386a4.783,4.783,0,0,0,2.01-.377,1.469,1.469,0,0,0,1-1.382,1.426,1.426,0,0,0-.377-1,1.892,1.892,0,0,0-1-.5,7.774,7.774,0,0,0-2.01-.377c-1.13-.251-2.01-.5-2.386-.628a1.988,1.988,0,0,1-1.256-1.884c0-1.633,1.256-2.386,3.768-2.386,2.638,0,4.019,1,4.019,3.14h-.879c-.126-1-.377-1.633-1-1.884a5,5,0,0,0-2.135-.377c-1.884,0-2.889.5-2.889,1.633a1.207,1.207,0,0,0,.754,1.13,4.949,4.949,0,0,0,1.884.5,9.959,9.959,0,0,1,3.391,1,1.854,1.854,0,0,1,1,1.884,2.283,2.283,0,0,1-1.382,2.01A15.462,15.462,0,0,1,31.17,68.494Z" transform="translate(6.384 -58.949)" fill="#fff"/><path d="M40.4,59.979v8.415h-.879V59.979H36V59.1h8.038v.879Z" transform="translate(8.714 -58.974)" fill="#fff"/><path d="M44.9,68.395V59.1h.879v9.295Z" transform="translate(10.993 -58.974)" fill="#fff"/><path d="M57.19,61.361a3.886,3.886,0,0,0-3.266-1.507,4.583,4.583,0,0,0-3.014,1,3.6,3.6,0,0,0-1.13,2.889,3.7,3.7,0,0,0,4.145,3.894,4.129,4.129,0,0,0,3.391-1.507l.754.5a5.018,5.018,0,0,1-4.145,1.884,4.955,4.955,0,0,1-3.642-1.256A4.638,4.638,0,0,1,48.9,63.873a4.726,4.726,0,0,1,1.382-3.517A5.074,5.074,0,0,1,54.05,59.1a5.018,5.018,0,0,1,4.145,1.884Z" transform="translate(12.017 -58.974)" fill="#fff"/><path d="M69.07,68.494a6.159,6.159,0,0,1-2.889-.628A2.752,2.752,0,0,1,64.8,65.354v-.377h.879v.377c0,1.633,1.13,2.386,3.391,2.386a4.783,4.783,0,0,0,2.01-.377,1.469,1.469,0,0,0,1-1.382,1.426,1.426,0,0,0-.377-1,1.892,1.892,0,0,0-1-.5,7.774,7.774,0,0,0-2.01-.377c-1.13-.251-2.01-.5-2.386-.628a1.988,1.988,0,0,1-1.256-1.884c0-1.633,1.256-2.386,3.768-2.386,2.638,0,4.019,1,4.019,3.14h-.879c-.126-1-.377-1.633-1-1.884a5,5,0,0,0-2.135-.377c-1.884,0-2.889.5-2.889,1.633a1.207,1.207,0,0,0,.754,1.13,4.949,4.949,0,0,0,1.884.5,9.959,9.959,0,0,1,3.391,1,1.854,1.854,0,0,1,1,1.884,2.283,2.283,0,0,1-1.382,2.01A12.955,12.955,0,0,1,69.07,68.494Z" transform="translate(16.087 -58.949)" fill="#fff"/><path d="M81.534,67.641a4.783,4.783,0,0,1-3.014.879c-2.763,0-4.019-1.256-4.019-3.642V59.1h.879v5.778c0,1.884,1,2.763,3.14,2.763s3.14-.879,3.14-2.763V59.1h.879v5.778A3.13,3.13,0,0,1,81.534,67.641Z" transform="translate(18.571 -58.974)" fill="#fff"/><path d="M90.731,63.9a2.1,2.1,0,0,1,1.256,2.135V68.42h-.879V66.034c0-1.13-.879-1.758-2.512-1.758H85.079v4.019H84.2V59h4.647c2.261,0,3.391.879,3.391,2.512A2.591,2.591,0,0,1,90.731,63.9ZM88.722,60H84.954v3.517H88.47a4.194,4.194,0,0,0,1.884-.377,1.645,1.645,0,0,0,.754-1.507C91.234,60.507,90.354,60,88.722,60Z" transform="translate(21.054 -59)" fill="#fff"/><path d="M101.69,67.666a5.141,5.141,0,0,1-3.14.879,5.074,5.074,0,0,1-3.768-1.256A4.3,4.3,0,0,1,93.4,63.773a4.726,4.726,0,0,1,1.382-3.517A5.074,5.074,0,0,1,98.55,59a6.55,6.55,0,0,1,2.889.628,3.73,3.73,0,0,1,1.758,2.763h-.879a3.7,3.7,0,0,0-1.256-2.01,4.619,4.619,0,0,0-2.512-.628,4.944,4.944,0,0,0-3.14,1,3.784,3.784,0,0,0-1.13,2.889,3.6,3.6,0,0,0,1.13,2.889,4.7,4.7,0,0,0,3.14,1,4.643,4.643,0,0,0,2.638-.754,2.468,2.468,0,0,0,1.13-2.135v-.126H98.3v-.879h4.9c0,.377.126.628.126.879A3.755,3.755,0,0,1,101.69,67.666Z" transform="translate(23.409 -59)" fill="#fff"/><path d="M104.4,68.395V59.1h7.285v.879h-6.406v3.266h5.652V64h-5.652v3.642h6.406v.879H104.4Z" transform="translate(26.225 -58.974)" fill="#fff"/><path d="M119.531,63.9a2.1,2.1,0,0,1,1.256,2.135V68.42h-.879V66.034c0-1.13-.879-1.758-2.512-1.758h-3.517v4.019H113V59h4.647c2.261,0,3.391.879,3.391,2.512C120.913,62.768,120.536,63.522,119.531,63.9ZM117.647,60h-3.768v3.517H117.4a4.194,4.194,0,0,0,1.884-.377,1.645,1.645,0,0,0,.754-1.507C120.034,60.507,119.28,60,117.647,60Z" transform="translate(28.427 -59)" fill="#fff"/><path d="M127,64V68.52h-.879V64L121.6,59.1h1.13l3.768,4.019,3.768-4.019h1.13Z" transform="translate(30.629 -58.974)" fill="#fff"/><path d="M143.78,68.646V67.264a3.755,3.755,0,0,1-2.889,1.382,4.6,4.6,0,0,1-2.261-.5,2.214,2.214,0,0,1-1.13-1.884q0-1.7,2.638-3.014a2.377,2.377,0,0,1-1.507-2.135,1.79,1.79,0,0,1,.754-1.507,3.562,3.562,0,0,1,1.633-.5,2.316,2.316,0,0,1,1.633.5,1.79,1.79,0,0,1,.754,1.507c0,.879-.879,1.758-2.638,2.763a13.748,13.748,0,0,0-1.758,1,1.736,1.736,0,0,0-.754,1.382,1.207,1.207,0,0,0,.754,1.13,3.477,3.477,0,0,0,1.633.377,2.752,2.752,0,0,0,2.512-1.382,4.281,4.281,0,0,0,.5-2.01h.879v4.27h-.754Zm-1.507-8.415a2.508,2.508,0,0,0-1.13-.251,2.366,2.366,0,0,0-1,.251c-.251.251-.5.5-.5.754,0,.754.5,1.256,1.507,1.758,1-.628,1.507-1.13,1.507-1.758A1.086,1.086,0,0,0,142.273,60.23Z" transform="translate(34.699 -58.974)" fill="#fff"/><path d="M161.82,68.395V60.858l-3.894,7.536h-.754l-3.894-7.536v7.536H152.4V59.1h1l4.145,8.038,4.145-8.038h1v9.295Z" transform="translate(38.514 -58.974)" fill="#fff"/><path d="M163.9,68.395V59.1h7.285v.879h-6.406v3.266h5.652V64h-5.652v3.642h6.406v.879H163.9Z" transform="translate(41.458 -58.974)" fill="#fff"/><path d="M179.634,67.264a5.625,5.625,0,0,1-3.768,1.13H172.6V59.1h3.894a4.474,4.474,0,0,1,3.517,1.256,4.606,4.606,0,0,1,1.13,3.391A5.352,5.352,0,0,1,179.634,67.264Zm-.377-6.28a4.018,4.018,0,0,0-2.889-1h-2.889v7.662h2.512a4.7,4.7,0,0,0,3.14-1,3.6,3.6,0,0,0,1.13-2.889A4.28,4.28,0,0,0,179.257,60.984Z" transform="translate(43.685 -58.974)" fill="#fff"/><path d="M182.4,68.395V59.1h.879v9.295Z" transform="translate(46.194 -58.974)" fill="#fff"/><path d="M194.69,61.361a3.886,3.886,0,0,0-3.266-1.507,4.583,4.583,0,0,0-3.014,1,3.6,3.6,0,0,0-1.13,2.889,3.7,3.7,0,0,0,4.145,3.894,4.129,4.129,0,0,0,3.391-1.507l.754.5a5.018,5.018,0,0,1-4.145,1.884,4.955,4.955,0,0,1-3.642-1.256,4.638,4.638,0,0,1-1.382-3.391,4.726,4.726,0,0,1,1.382-3.517A5.074,5.074,0,0,1,191.55,59.1a5.018,5.018,0,0,1,4.145,1.884Z" transform="translate(47.219 -58.974)" fill="#fff"/><path d="M204.467,68.395l-1.382-2.889h-4.9L196.8,68.395h-1l4.522-9.295h.754l4.27,9.295Zm-3.642-7.913-2.01,4.27h4.019Z" transform="translate(49.625 -58.974)" fill="#fff"/><path d="M206,68.395V59.1h.879v8.415h5.9v.879H206Z" transform="translate(52.236 -58.974)" fill="#fff"/><path d="M223.97,68.494a6.159,6.159,0,0,1-2.889-.628,2.752,2.752,0,0,1-1.382-2.512v-.377h.879v.377c0,1.633,1.13,2.386,3.391,2.386a4.783,4.783,0,0,0,2.01-.377,1.469,1.469,0,0,0,1-1.382,1.426,1.426,0,0,0-.377-1,1.892,1.892,0,0,0-1-.5,7.774,7.774,0,0,0-2.01-.377c-1.13-.251-2.01-.5-2.386-.628a1.988,1.988,0,0,1-1.256-1.884c0-1.633,1.256-2.386,3.768-2.386,2.638,0,4.019,1,4.019,3.14h-.879c-.126-1-.377-1.633-1-1.884a5,5,0,0,0-2.135-.377c-1.884,0-2.889.5-2.889,1.633a1.207,1.207,0,0,0,.754,1.13,4.949,4.949,0,0,0,1.884.5,9.959,9.959,0,0,1,3.391,1,1.854,1.854,0,0,1,1,1.884,2.283,2.283,0,0,1-1.382,2.01A14.123,14.123,0,0,1,223.97,68.494Z" transform="translate(55.744 -58.949)" fill="#fff"/><path d="M235.957,63.873a4.782,4.782,0,0,1-2.386.5h-3.391v4.019H229.3V59.1h4.4c2.386,0,3.517.879,3.517,2.763A2.154,2.154,0,0,1,235.957,63.873Zm-2.135-3.894h-3.642v3.642h3.642a4.012,4.012,0,0,0,1.758-.377,1.576,1.576,0,0,0,.754-1.382C236.334,60.607,235.454,59.979,233.822,59.979Z" transform="translate(58.201 -58.974)" fill="#fff"/><path d="M246.467,68.395l-1.382-2.889h-4.9L238.8,68.395h-1l4.522-9.295h.754l4.27,9.295ZM242.7,60.482l-2.01,4.27h4.019Z" transform="translate(60.378 -58.974)" fill="#fff"/></g><line x2="131.379" transform="translate(0 50.743)" fill="#f1f2f2" stroke="#fff" stroke-miterlimit="10" stroke-width="0.781"/><line x2="23.487" transform="translate(284.361 50.743)" fill="#f1f2f2" stroke="#fff" stroke-miterlimit="10" stroke-width="0.781"/></svg>